<svg width="32" height="32" viewBox="0 0 32 32" fill="none" xmlns="http://www.w3.org/2000/svg">
<circle cx="16" cy="16" r="16" fill="black"/>
<path d="M16 8C16 7.44772 16.4477 7 17 7H20C20.5523 7 21 7.44772 21 8V11C21 11.5523 20.5523 12 20 12H17C16.4477 12 16 11.5523 16 11V8Z" fill="#61E5FE"/>
<path d="M16 14C16 13.4477 16.4477 13 17 13H20C20.5523 13 21 13.4477 21 14V17C21 17.5523 20.5523 18 20 18H17C16.4477 18 16 17.5523 16 17V14Z" fill="#F6C92F"/>
<path d="M10 14C10 13.4477 10.4477 13 11 13H14C14.5523 13 15 13.4477 15 14V17C15 17.5523 14.5523 18 14 18H11C10.4477 18 10 17.5523 10 17V14Z" fill="#E6491C"/>
<path d="M16 20C16 19.4477 16.4477 19 17 19H20C20.5523 19 21 19.4477 21 20V23C21 23.5523 20.5523 24 20 24H17C16.4477 24 16 23.5523 16 23V20Z" fill="#61E5FD"/>
<path d="M10 20C10 19.4477 10.4477 19 11 19H14C14.5523 19 15 19.4477 15 20V23C15 23.5523 14.5523 24 14 24H11C10.4477 24 10 23.5523 10 23V20Z" fill="#F6C92F"/>
<circle cx="16" cy="16" r="16" fill="url(#paint0_linear_131_3829)" fill-opacity="0.2"/>
<defs>
<linearGradient id="paint0_linear_131_3829" x1="16" y1="0" x2="16" y2="32" gradientUnits="userSpaceOnUse">
<stop stop-color="white"/>
<stop offset="1" stop-color="white" stop-opacity="0"/>
</linearGradient>
</defs>
</svg>
