<?xml version="1.0" encoding="utf-8"?>
<!-- Generator: Adobe Illustrator 22.0.0, SVG Export Plug-In . SVG Version: 6.00 Build 0)  -->
<svg version="1.1" id="Calque_1" xmlns="http://www.w3.org/2000/svg" xmlns:xlink="http://www.w3.org/1999/xlink" x="0px" y="0px"
	 viewBox="0 0 550 130" style="enable-background:new 0 0 550 130;" xml:space="preserve">
<style type="text/css">
	.st0{fill:#DEB320;}
</style>
<path d="M27.8,91.7c4.4,1.6,9.3,1.4,13.9,0.7c4.8-0.7,9.6-1.8,14.3-3c5.4-1.3,10.8-2.9,16-4.7c10.1-3.6,35-11,41.8-12.5
	c20.4-5.4,39.3-7.8,65-8.8c69.8-2.7,68.4,1.7,123.9-5.5c-51.8,6.1-86.4-3.3-155.1,4.6c-29.4,3.4-44.6,8.4-58.9,13.1
	C74.4,80.3,55.1,87.8,43,89.5c-8.8,1.2-18.2-0.7-19.7-1.2c0.6,1.7,2.6,2.6,4.2,3.2C27.6,91.6,27.7,91.6,27.8,91.7z M23,88.3
	C23,88.3,23.1,88.3,23,88.3"/>
<path d="M10.5,63.1c43.4-0.1,67.9,2,131-6.3c-30.6,3.6-62.2,2.6-89.4,2.1c21.9-1.4,51.4-6.6,75.8-9.3c44.3-4.9,97-5.5,133.6-2.5
	c84.6,6.8,190.6,25.9,211.3,30.6c0,0,20.6,3.7,43.1,14.1c-12.1-12.5-39.8-17.9-69.5-23.4c-42.9-8-89.8-16.6-158.6-26.4
	c-9.2-1.3-71.9-8.9-152-1.8C165.2,28.8,259.5-23,359.1,44c3.8,2.5,9.9,8,9.9,8c25.4,4.3,102.3,16.4,131.1,27c0,0,22.6,8.2,39.4,36.5
	C534,93.6,522,78.6,494.2,70.7C454,59.2,422.6,54,380.4,45.1C366.3,37,310.6-2.6,216.8,6c-9.4,0.9-18.7,2.1-28,3.7
	c-8.6,1.5-17.2,3.3-25.7,5.3c-7.9,1.9-15.7,4.1-23.5,6.5c-7.2,2.2-14.4,4.6-21.6,7.1c-6.6,2.3-13.2,4.8-19.8,7.2
	c-6.1,2.3-12.1,4.6-18.2,6.8c-5.6,2.1-11.1,4.1-16.8,6c-6.7,2.2-13.5,4-20.3,6c-9.6,2.7-19.1,5.8-28.8,7.8
	C12.9,62.8,11.7,63,10.5,63.1z"/>
<g>
	<path d="M44.9,114.5l-11.5-13.9V124h-4.9V94.8l-4-4.8h6.4l13.9,16.7L58.9,90h6.4l-4,4.8V124h-4.8v-23.3L44.9,114.5z"/>
	<path d="M93,90.1h5.7c-3.2,7.6-7.6,13.7-12.6,19.2V124h-4.9v-14.7c-5.1-5.5-9.4-11.7-12.6-19.2h5.7c1.9,5.2,5.3,10.6,9.4,14.9
		C87.7,100.7,91.1,95.3,93,90.1z"/>
	<path d="M167.8,95.1V124H163V95.1h-12.1v-5h28.9v5H167.8z"/>
	<path d="M212,98.2c-2.5-2.5-6.1-4.1-9.9-4.1c-7.6,0-13.4,5.4-13.4,13.1c0,7.3,6.3,12.7,13.4,12.7c4.4,0,8.3-2,10.8-5.3l3,4.1
		c-3.4,3.8-8.4,6.1-13.9,6.1c-10.3,0-18.2-8-18.2-18.2c0-10,8.6-17.5,18.3-17.5c5.1,0,9.7,2,13.1,5.4L212,98.2z"/>
	<path d="M261.5,98.2c-2.5-2.5-6.1-4.1-9.9-4.1c-7.6,0-13.4,5.4-13.4,13.1c0,7.3,6.3,12.7,13.4,12.7c4.4,0,8.3-2,10.8-5.3l3,4.1
		c-3.4,3.8-8.4,6.1-13.9,6.1c-10.3,0-18.2-8-18.2-18.2c0-10,8.6-17.5,18.3-17.5c5.1,0,9.7,2,13.1,5.4L261.5,98.2z"/>
	<path d="M310.9,90.1h6.4l21.8,25.9V90.1h5V124h-4.9l-19.5-23.3V124h-4.9V94.8L310.9,90.1z"/>
	<path d="M351.1,90.1h6.4l21.8,25.9V90.1h5V124h-4.9l-19.5-23.3V124H355V94.8L351.1,90.1z"/>
	<path d="M399.3,119h20.9v5h-25.9V90.1h23.9v5h-18.9v10.3c2-1.2,4.2-1.3,6.4-1.3h7.4v5.1h-7.4c-2.2,0-4.4,0.2-6.4,1.3V119z"/>
	<path d="M454.1,98.2c-2.5-2.5-6.1-4.1-9.9-4.1c-7.6,0-13.4,5.4-13.4,13.1c0,7.3,6.3,12.7,13.4,12.7c4.4,0,8.3-2,10.8-5.3l3,4.1
		c-3.4,3.8-8.4,6.1-13.9,6.1c-10.3,0-18.2-8-18.2-18.2c0-10,8.6-17.5,18.3-17.5c5.1,0,9.7,2,13.1,5.4L454.1,98.2z"/>
	<path d="M478.6,95.1V124h-4.8V95.1h-12.1v-5h28.9v5H478.6z"/>
</g>
<g>
	<path d="M130.1,124.7c10.3-7,17.3-19.8,18.2-21.4c0.9-1.6-0.3-2.3-0.3-2.3l-1.3-1c0.4-0.4,0.7-0.9,1-1.3c0.7-1.3,0.8-2.8-0.2-4
		c-0.4-0.4-0.9-0.7-1.3-1.1c-0.5-0.4-0.9-0.7-1.4-1.1c-1-0.8-2.1-1.6-3.1-2.4c-0.5-0.4-1-0.8-1.6-1.2l0.1,4.6
		c1.7,1.1,3.6,2.6,4.1,4.7c0.4,1.3,0.1,2.5-0.4,3.7v0.1c-2.1,5-5.2,9.6-8.9,13.6c-1.1,1.2-2.3,2.4-3.5,3.6c-0.2,0.2-1.3,1.1-1.5,1.2
		c-0.2-0.2-1.3-1.1-1.5-1.2c-1.2-1.1-2.4-2.3-3.5-3.6c-3.6-4-6.7-8.6-8.9-13.6v-0.1c-0.5-1.2-0.8-2.4-0.4-3.7
		c0.6-2.1,2.4-3.5,4.1-4.7l0.1-4.6c-0.5,0.4-1,0.8-1.6,1.2c-1,0.8-2.1,1.6-3.1,2.4c-0.5,0.4-0.9,0.7-1.4,1.1
		c-0.4,0.3-0.9,0.6-1.3,1.1c-1,1.2-0.9,2.7-0.2,4c0.3,0.5,0.6,0.9,1,1.3l-1.3,1c0,0-1.3,0.7-0.3,2.3S119.8,117.7,130.1,124.7z"/>
	<path d="M130.1,117l-3.8-4.2c0,0,0.9-7.9,1.6-10.6c0.3-1,0.6-2.3,0.8-2.7c-0.4-0.3-0.7-0.8-1.1-1.9c0.7-0.8,1.5-1.5,2.5-1.9
		c1,0.4,1.8,1.2,2.5,1.9c-0.4,1.1-0.6,1.6-1.1,1.9c0.2,0.5,0.5,1.8,0.8,2.7c0.7,2.6,1.6,10.6,1.6,10.6L130.1,117z"/>
</g>
<g>
	<path class="st0" d="M279.9,97.1c2.3-1.9,5.4-3.1,8.8-3.1c3.7,0,7.1,1.4,9.5,3.7l3.8-3.1c-3.3-3.4-8-5.6-13.2-5.6
		c-4.8,0-9.3,1.8-12.6,4.8L279.9,97.1z"/>
	<path d="M300.4,100.5c1,1.8,1.7,3.9,1.7,6.3c0,7.4-6.1,13-13.3,13c-7.1,0-13.4-5.4-13.4-12.7c0-2.8,0.8-5.3,2.2-7.4l-3.7-3.2
		c-2.1,2.8-3.3,6.2-3.3,10c0,10.2,8,18.2,18.2,18.2c9.8,0,18.3-7.7,18.3-17.7c0-3.6-1-6.9-2.8-9.7L300.4,100.5z"/>
</g>
<g>
	<path class="st0" d="M288.5,80.5c-6.7,0-13.2,2.7-18,7.3l3.7,3c3.8-3.5,8.8-5.7,14.4-5.7c5.9,0,11.8,2.9,15.7,6.9l3.4-2.8
		C302.6,83.6,295.7,80.5,288.5,80.5z"/>
	<path class="st0" d="M282.9,100.2l2,1.7c1.2-1.1,2.4-1.5,4.1-1.5c1.8,0,3.4,0.7,4.6,1.9l1.9-1.8c-1.7-1.7-3.9-2.7-6.4-2.7
		C286.7,97.7,284.6,98.7,282.9,100.2z"/>
</g>
<circle class="st0" cx="289.5" cy="107.5" r="3.3"/>
</svg>
