<svg width="32" height="32" viewBox="0 0 32 32" fill="none" xmlns="http://www.w3.org/2000/svg">
<path d="M16 32C24.8366 32 32 24.8366 32 16C32 7.16344 24.8366 0 16 0C7.16344 0 0 7.16344 0 16C0 24.8366 7.16344 32 16 32Z" fill="#2775CA"/>
<path d="M13.0667 27.0667C13.0667 27.4667 12.8 27.6 12.4 27.6C7.46667 26 4 21.4667 4 16.1333C4 10.8 7.46667 6.26667 12.4 4.66667C12.8 4.53334 13.0667 4.80001 13.0667 5.20001V6.13334C13.0667 6.40001 12.9333 6.66667 12.6667 6.80001C8.8 8.26667 6.13333 11.8667 6.13333 16.1333C6.13333 20.4 8.93333 24.1333 12.6667 25.4667C12.9333 25.6 13.0667 25.8667 13.0667 26.1333V27.0667Z" fill="white"/>
<path d="M17.0667 23.7333C17.0667 24 16.8 24.2667 16.5333 24.2667H15.4667C15.2 24.2667 14.9333 24 14.9333 23.7333V22.1333C12.8 21.8667 11.7333 20.6667 11.3333 18.9333C11.3333 18.6667 11.4667 18.4 11.7333 18.4H12.9333C13.2 18.4 13.3333 18.5333 13.4667 18.8C13.7333 19.7333 14.2667 20.5333 16 20.5333C17.3333 20.5333 18.2667 19.8667 18.2667 18.8C18.2667 17.7333 17.7333 17.3333 15.8667 17.0667C13.0667 16.6667 11.7333 15.8667 11.7333 13.6C11.7333 11.8667 13.0667 10.5333 14.9333 10.2667V8.66666C14.9333 8.4 15.2 8.13333 15.4667 8.13333H16.5333C16.8 8.13333 17.0667 8.4 17.0667 8.66666V10.2667C18.6667 10.5333 19.7333 11.4667 20 12.9333C20 13.2 19.8667 13.4667 19.6 13.4667H18.5333C18.2667 13.4667 18.1333 13.3333 18 13.0667C17.7333 12.1333 17.0667 11.7333 15.8667 11.7333C14.5333 11.7333 13.8667 12.4 13.8667 13.3333C13.8667 14.2667 14.2667 14.8 16.2667 15.0667C19.0667 15.4667 20.4 16.2667 20.4 18.5333C20.4 20.2667 19.0667 21.7333 17.0667 22.1333V23.7333Z" fill="white"/>
<path d="M19.6 27.6C19.2 27.7333 18.9333 27.4667 18.9333 27.0667V26.1333C18.9333 25.8667 19.0667 25.6 19.3333 25.4667C23.2 24 25.8667 20.4 25.8667 16.1333C25.8667 11.8667 23.0667 8.13334 19.3333 6.8C19.0667 6.66667 18.9333 6.4 18.9333 6.13334V5.20001C18.9333 4.80001 19.2 4.66667 19.6 4.66667C24.4 6.26667 28 10.8 28 16.1333C28 21.4667 24.5333 26 19.6 27.6Z" fill="white"/>
<circle cx="16" cy="16" r="16" fill="url(#paint0_linear_5_16276)" fill-opacity="0.2"/>
<defs>
<linearGradient id="paint0_linear_5_16276" x1="16" y1="0" x2="16" y2="32" gradientUnits="userSpaceOnUse">
<stop stop-color="white"/>
<stop offset="1" stop-color="white" stop-opacity="0"/>
</linearGradient>
</defs>
</svg>
